# xmcd
#
# Track frame offsets:
#	150
#	20644
#	41093
#	57561
#	77516
#	93743
#	109562
#	126332
#	143332
#	167056
#
# Disc length: 2471 seconds
#
# Revision: 1
# Processed by: cddbd v1.5.2PL0 Copyright (c) Steve Scherf et al.
# Submitted via: audiograbber 1.83.01
#
DISCID=8209a50a
DTITLE=Biss - Face Off
DYEAR=2005
DGENRE=Hard Rock
TTITLE0=breathless
TTITLE1=pyromania
TTITLE2=rejected
TTITLE3=d.s.o.d.
TTITLE4=raise the hammer
TTITLE5=calling
TTITLE6=big life
TTITLE7=fire in the night
TTITLE8=lady of the night
TTITLE9=wiseman
EXTD=
EXTT0=
EXTT1=
EXTT2=
EXTT3=
EXTT4=
EXTT5=
EXTT6=
EXTT7=
EXTT8=
EXTT9=
PLAYORDER=
